<!DOCTYPE svg PUBLIC "-//W3C//DTD SVG 1.1//EN" "http://www.w3.org/Graphics/SVG/1.1/DTD/svg11.dtd">
<!-- Uploaded to: SVG Repo, www.svgrepo.com, Transformed by: SVG Repo Mixer Tools -->
<svg width="15px" height="15px" viewBox="0 0 16 16" xmlns="http://www.w3.org/2000/svg" fill="#000000">

<g id="SVGRepo_bgCarrier" stroke-width="0"/>

<g id="SVGRepo_tracerCarrier" stroke-linecap="round" stroke-linejoin="round"/>

<g id="SVGRepo_iconCarrier"> <g fill="#2e3436"> <path d="m 3 1 h 3 c 0.550781 0 1 0.449219 1 1 v 12 c 0 0.550781 -0.449219 1 -1 1 h -3 c -0.550781 0 -1 -0.449219 -1 -1 v -12 c 0 -0.550781 0.449219 -1 1 -1 z m 0 0"/> <path d="m 10 1 h 3 c 0.550781 0 1 0.449219 1 1 v 12 c 0 0.550781 -0.449219 1 -1 1 h -3 c -0.550781 0 -1 -0.449219 -1 -1 v -12 c 0 -0.550781 0.449219 -1 1 -1 z m 0 0"/> </g> </g>

</svg>
